<svg width="31" height="21" viewBox="0 0 31 21" fill="none" xmlns="http://www.w3.org/2000/svg">
<path d="M30.6216 0H0V20.4614H30.6216V0Z" fill="#084B8E"/>
<path d="M13.4058 6.49121H0V8.32568H13.4058V6.49121Z" fill="#FEFDFB"/>
<path d="M30.6216 6.49121H17.3569V8.32568H30.6216V6.49121Z" fill="#FEFDFB"/>
<path d="M30.6216 13.9702H19.3438H17.3569V12.0652H30.6216V13.9702Z" fill="#FEFDFB"/>
<path d="M13.4058 12.1357H0V13.9702H13.4058V12.1357Z" fill="#FEFDFB"/>
<path d="M13.4058 0H12.1357V8.32569H13.4058V0Z" fill="#FEFDFB"/>
<path d="M18.627 0H17.3569V8.32569H18.627V0Z" fill="#FEFDFB"/>
<path d="M18.627 12.1357H17.3569V20.4614H18.627V12.1357Z" fill="#FEFDFB"/>
<path d="M13.4058 12.1357H12.1357V20.4614H13.4058V12.1357Z" fill="#FEFDFB"/>
<path d="M17.2864 5.95075L28.876 0H30.6216L17.7125 6.70289H17.2864V5.95075Z" fill="#FEFDFB"/>
<path d="M21.5325 6.56177L30.6216 1.99675V0L17.8508 6.56177H21.5325Z" fill="#B72722"/>
<path d="M25.1182 6.56177L30.6216 3.68306V1.97559L21.5198 6.56177H25.1182Z" fill="#FEFDFB"/>
<path d="M24.1007 13.9702L30.6216 17.5545V18.4153C27.9164 16.9336 25.2127 15.4519 22.5076 13.9702H24.1007Z" fill="#FEFDFB"/>
<path d="M11.4372 13.9702L0 20.3768V18.4562L8.11684 13.9702H11.4372Z" fill="#B72722"/>
<path d="M1.43795 20.4614L12.1358 14.5093V13.9702H11.4372L0 20.3203V20.4614H1.43795Z" fill="#FEFDFB"/>
<path d="M0 16.7233L4.9305 13.9702H8.04346C5.36231 15.466 2.68115 16.9604 0 18.4562V16.7233Z" fill="#FEFDFB"/>
<path d="M0 1.74981L8.43999 6.49122H11.7505C7.8332 4.32795 3.91731 2.16327 0 0V1.74981Z" fill="#B72722"/>
<path d="M12.1358 4.85995L3.42059 0H0.0705566L11.7505 6.49122H12.1358V4.85995Z" fill="#FEFDFB"/>
<path d="M0 2.59926L6.99076 6.49117H8.37085L0 1.74976V2.59926Z" fill="#FEFDFB"/>
<path d="M30.6216 18.3447L22.5781 13.9702H19.2239L30.6216 20.3104V18.3447Z" fill="#B72722"/>
<path d="M30.6216 20.3203V20.4614H27.5439L18.627 15.4561V13.9702H19.1914L30.6216 20.3203Z" fill="#FEFDFB"/>
<path d="M30.6216 8.32568H0V12.1357H30.6216V8.32568Z" fill="#B72722"/>
<path d="M17.3569 0H13.4058V20.4614H17.3569V0Z" fill="#B72722"/>
</svg>
