<svg width="32" height="32" viewBox="0 0 32 32" fill="none" xmlns="http://www.w3.org/2000/svg">
<g clip-path="url(#clip0_29_531)">
<path d="M24.5 0H7.5C3.35786 0 0 3.35786 0 7.5V24.5C0 28.6421 3.35786 32 7.5 32H24.5C28.6421 32 32 28.6421 32 24.5V7.5C32 3.35786 28.6421 0 24.5 0Z" fill="#242938"/>
<mask id="mask0_29_531" style="mask-type:luminance" maskUnits="userSpaceOnUse" x="7" y="3" width="18" height="26">
<path d="M7.625 3.5H24.295V28.5H7.625V3.5Z" fill="white"/>
</mask>
<g mask="url(#mask0_29_531)">
<path d="M11.7934 28.5C14.0934 28.5 15.96 26.6334 15.96 24.3334V20.1666H11.7934C9.49338 20.1666 7.62663 22.0334 7.62663 24.3334C7.62663 26.6334 9.49338 28.5 11.7934 28.5Z" fill="#0ACF83"/>
<path d="M7.62663 16C7.62663 13.7 9.49338 11.8334 11.7934 11.8334H15.96V20.1666H11.7934C9.49338 20.1666 7.62663 18.3 7.62663 16Z" fill="#A259FF"/>
<path d="M7.62663 7.66663C7.62663 5.36663 9.49338 3.5 11.7934 3.5H15.96V11.8334H11.7934C9.49338 11.8334 7.62663 9.96663 7.62663 7.66663Z" fill="#F24E1E"/>
<path d="M15.96 3.5H20.1266C22.4266 3.5 24.2934 5.36663 24.2934 7.66663C24.2934 9.96663 22.4266 11.8334 20.1266 11.8334H15.96V3.5Z" fill="#FF7262"/>
<path d="M24.2934 16C24.2934 18.3 22.4266 20.1666 20.1266 20.1666C17.8266 20.1666 15.96 18.3 15.96 16C15.96 13.7 17.8266 11.8334 20.1266 11.8334C22.4266 11.8334 24.2934 13.7 24.2934 16Z" fill="#1ABCFE"/>
</g>
</g>
<defs>
<clipPath id="clip0_29_531">
<rect width="32" height="32" fill="white"/>
</clipPath>
</defs>
</svg>
