<svg width="32" height="32" viewBox="0 0 32 32" fill="none" xmlns="http://www.w3.org/2000/svg">
<g clip-path="url(#clip0_29_546)">
<path d="M24.5 0H7.5C3.35786 0 0 3.35786 0 7.5V24.5C0 28.6421 3.35786 32 7.5 32H24.5C28.6421 32 32 28.6421 32 24.5V7.5C32 3.35786 28.6421 0 24.5 0Z" fill="#330000"/>
<path d="M15.4666 19.0416H10.5066L9.49325 22.175C9.46663 22.295 9.36 22.375 9.24 22.3616H6.73325C6.58663 22.3616 6.54663 22.2816 6.58663 22.1216L10.88 9.76161C10.92 9.62836 10.96 9.48161 11.0133 9.32161C11.0666 9.04161 11.0933 8.74836 11.0933 8.45498C11.08 8.38836 11.1333 8.32161 11.2 8.30836H14.6533C14.76 8.30836 14.8133 8.34836 14.8266 8.41498L19.6933 22.1484C19.7333 22.295 19.6933 22.3616 19.56 22.3616H16.7733C16.68 22.375 16.5866 22.3084 16.56 22.215L15.4666 19.0416ZM11.28 16.335H14.6666C14.5866 16.055 14.48 15.7216 14.36 15.375C14.24 15.015 14.12 14.6284 14 14.2284C13.8666 13.815 13.7466 13.415 13.6133 13.0016C13.48 12.5884 13.36 12.2016 13.2533 11.815C13.1466 11.4417 13.0533 11.095 12.96 10.775H12.9333C12.8133 11.3484 12.6666 11.9217 12.48 12.495C12.28 13.135 12.08 13.8016 11.8666 14.4684C11.6944 15.0977 11.4987 15.7203 11.28 16.335ZM22.6666 10.6416C22.2266 10.655 21.8 10.4816 21.48 10.175C21.1734 9.84161 21.0134 9.40161 21.0266 8.94836C21.0134 8.49498 21.1866 8.06836 21.5066 7.76161C21.8266 7.45498 22.2534 7.29498 22.6934 7.29498C23.2134 7.29498 23.6134 7.45498 23.9066 7.76161C24.2021 8.08487 24.36 8.51059 24.3466 8.94836C24.36 9.40161 24.2 9.84161 23.88 10.175C23.5734 10.495 23.12 10.6684 22.6666 10.6416ZM21.1734 22.215V11.9484C21.1734 11.815 21.2266 11.7616 21.3466 11.7616H23.9866C24.1066 11.7616 24.16 11.8284 24.16 11.9484V22.215C24.16 22.3616 24.1066 22.4284 23.9866 22.4284H21.3734C21.24 22.4284 21.1734 22.3484 21.1734 22.215Z" fill="#FF9A00"/>
</g>
<defs>
<clipPath id="clip0_29_546">
<rect width="32" height="32" fill="white"/>
</clipPath>
</defs>
</svg>
