<svg width="32" height="32" viewBox="0 0 32 32" fill="none" xmlns="http://www.w3.org/2000/svg">
<g clip-path="url(#clip0_21_326)">
<path d="M17.6448 0.00196857C18.8123 -0.00251164 19.9799 0.00922255 21.147 0.0371675L21.4574 0.0483671C21.8158 0.0611666 22.1694 0.077166 22.5966 0.0963654C24.2989 0.176363 25.4604 0.445154 26.4796 0.84034C27.5355 1.24673 28.4251 1.79711 29.3146 2.68668C30.128 3.48602 30.7575 4.45293 31.1593 5.52018C31.5545 6.53935 31.8233 7.70251 31.9033 9.40485C31.9225 9.83043 31.9385 10.1856 31.9513 10.544L31.9609 10.8544C31.9893 12.0211 32.0016 13.1881 31.9977 14.3551L31.9993 15.5486V17.6446C32.0032 18.8121 31.991 19.9796 31.9625 21.1468L31.9529 21.4572C31.9401 21.8156 31.9241 22.1692 31.9049 22.5964C31.8249 24.2987 31.5529 25.4603 31.1593 26.4795C30.7588 27.5478 30.1291 28.5156 29.3146 29.3146C28.5146 30.1279 27.5472 30.7573 26.4796 31.1593C25.4604 31.5545 24.2989 31.8233 22.5966 31.9033C22.1694 31.9225 21.8158 31.9385 21.4574 31.9513L21.147 31.9609C19.9799 31.9893 18.8123 32.0016 17.6448 31.9977L16.4513 31.9993H14.357C13.1895 32.0032 12.0219 31.991 10.8548 31.9625L10.5444 31.9529C10.1646 31.9391 9.78486 31.9231 9.40524 31.9049C7.70293 31.8249 6.54139 31.5529 5.52064 31.1593C4.45299 30.7583 3.48592 30.1287 2.68719 29.3146C1.8729 28.5151 1.24282 27.5475 0.84088 26.4795C0.4457 25.4603 0.176914 24.2987 0.0969181 22.5964C0.0790997 22.2168 0.0631004 21.837 0.0489206 21.4572L0.0409213 21.1468C0.0114245 19.9797 -0.00190958 18.8121 0.000923154 17.6446V14.3551C-0.00354216 13.1881 0.00819182 12.0211 0.0361215 10.8544L0.0473208 10.544C0.0601202 10.1856 0.0761193 9.83043 0.0953183 9.40485C0.175314 7.70091 0.4441 6.54095 0.83928 5.52018C1.24146 4.45241 1.87277 3.48576 2.68879 2.68828C3.48698 1.87351 4.45343 1.24284 5.52064 0.84034C6.54139 0.445154 7.70133 0.176363 9.40524 0.0963654L10.5444 0.0483671L10.8548 0.0403675C12.0214 0.010885 13.1884 -0.00244928 14.3554 0.000368736L17.6448 0.00196857ZM16.0001 8.0001C13.8785 8.0001 11.8438 8.84292 10.3435 10.3432C8.84332 11.8434 8.00051 13.8782 8.00051 15.9998C8.00051 18.1215 8.84332 20.1562 10.3435 21.6565C11.8438 23.1567 13.8785 23.9996 16.0001 23.9996C18.1217 23.9996 20.1565 23.1567 21.6567 21.6565C23.1569 20.1562 23.9997 18.1215 23.9997 15.9998C23.9997 13.8782 23.1569 11.8434 21.6567 10.3432C20.1565 8.84292 18.1217 8.0001 16.0001 8.0001ZM16.0001 11.2C16.6304 11.1999 17.2546 11.3239 17.8369 11.565C18.4193 11.8062 18.9485 12.1596 19.3943 12.6053C19.84 13.0509 20.1937 13.58 20.435 14.1623C20.6763 14.7446 20.8006 15.3687 20.8007 15.999C20.8008 16.6293 20.6767 17.2535 20.4356 17.8359C20.1945 18.4183 19.841 18.9475 19.3954 19.3933C18.9498 19.839 18.4207 20.1927 17.8384 20.434C17.2561 20.6753 16.632 20.7996 16.0017 20.7997C14.7287 20.7997 13.5079 20.294 12.6078 19.3938C11.7076 18.4937 11.2019 17.2728 11.2019 15.9998C11.2019 14.7268 11.7076 13.506 12.6078 12.6058C13.5079 11.7057 14.7287 11.2 16.0017 11.2M24.4013 5.60018C23.8851 5.62084 23.397 5.84041 23.0391 6.21291C22.6812 6.58541 22.4814 7.08194 22.4814 7.59851C22.4814 8.11508 22.6812 8.61161 23.0391 8.98411C23.397 9.35661 23.8851 9.57618 24.4013 9.59684C24.9317 9.59684 25.4404 9.38614 25.8154 9.01108C26.1905 8.63602 26.4012 8.12733 26.4012 7.59691C26.4012 7.0665 26.1905 6.55781 25.8154 6.18274C25.4404 5.80768 24.9317 5.59698 24.4013 5.59698" fill="#0F0F0F"/>
</g>
<defs>
<clipPath id="clip0_21_326">
<rect width="32" height="32" fill="white"/>
</clipPath>
</defs>
</svg>
